<svg xmlns="http://www.w3.org/2000/svg" viewBox="0 0 2100 113" preserveAspectRatio="none" fill="none">
<path fill="#fff" class="elementor-shape-fill vc-shape-fill" d="M2109.2,103.6h-1.7l-2.8-0.5c0,0-0.3,0.7-1.6,0.5c-1.4-0.1-2.9-0.1-4.3,0.1v-5.1h-2c0,0,0.4-2.8-2.4,0s-5.8-0.4-7.1,1.9
	s-3.8-1.8-5.1,0s-2.6-1.3-3.9,0s-10.2-3.1-10.2-3.1l-6.5,2.8c-2.6-0.5-11.6-2.8-11.6-2.8v-1.5l-5.1-2.4c0,0,2.4,3.1-1.6,0
	s-7.1-5.1-8.3-7.1s-3.2-6.3-3.2-6.3s0.4,0.8-1.6,0s-6.3,0-6.3,0c-1.9-0.4-3.8-1.1-5.5-2c-2-1.2-7.9-6.7-10.2-6.7s-2.4-0.8-7.1,0
	s-11,3.2-12.8,1.7s-1.8,0.2-3.3,0.2l-1.5,0l-3.9-2.3l-4.3-2.6c0,0,3.4-2.6-2.3,0l-5.7,2.6l-2.8,3.2l-5.9,2l-2.4-1.2l-2.4-0.7
	c-9.9,3.5-10.2,5.1-10.2,5.1l-3.2-0.8l-4.7-4.3c-1.5,0.1-24,0-24,0l5.1,2c0.4,2.7-7.9,6.3-7.9,6.3l-3.9,0.4l-4.3-0.4l-0.9-4.3
	c-0.8-0.3-1.7-0.7-2.4-1.2c-1.6-1,0.1-1.1-4.2-1.9s-7.9,0.9-9.3-0.6s1.8-1.4-8.4-1s-12.2,0-12.2,0s-21.3-9.8-24.4-9.5l-3.2,0.4
	l-1.6,5.1c0,0-0.3,2.7-3.6,1.5s-2.8,0.4-2.8,0.4l-2.1-0.4l-2.6-4.9l-2.8-2.1c0,0,1.7-6.3-3.6-3.6s1.4-2.3-5.3,2.7s-6.7,4.2-11.1,5.1
	s-7.6,0.9-9.6-0.7s-5.1-1.6-6.3-3.5s-5.5-7.1-7.5-7.5s-1.6-2.8-4.7-2s-6.4,6.4-9.5,8.4l-3,2c0,0-3.7,2.2-7.6,4.2
	c-2.6,1.3-5.4,2.2-8.3,2.8c-1.2-0.7-2.6-1.2-3.9-1.6c-2-0.4-2.8-1.2-3.9-1.6l-1.2-0.4L1718.3,79c0-2.6-4.3-11.5-8.3-10.3
	s-4,1.2-5.1,0.4c-4.5-3.3-9.6-5.7-15-7.2c-9.1-2.7-11.4-4.2-11.4-4.2l-4.5,7.4c0,0,6.1-3.1-3.7-1.1s-11.4,2-13.8,2s1.9,2.6-2.4,0
	s-5.8-2.8-8.8-3.1s-0.5-9.5-6.2-2.9s-0.4,5.2-5.7,6.6s-4.9,3.3-14.5,3.3s-12.8-1.2-12.8-1.2l-2.3-2.9l-3.2-3.8
	c-1.1-0.8-2.1-1.8-2.9-3c-1.1-1.8-3.4-5.7-4.6-6.5s-3.5-4.7-9.1-4.7s-4.9-1.9-10.6,3.9s-1,2.1-7.8,5.2s-6.8,3.1-9.1,3.1
	s-3.8-3.6-6.2-3.6s-3.7-3.5-8.8-3.1s-2,0-12.6,2s-9.8,2-18.9,2s-11-0.8-13-0.8s-1.2,0-2,2.8s-5.1,3.5-7.1,4.7c-1.4,0.7-3,0.7-4.3,0
	c0,0,0,2.8-2.4,0s-2-6.3-5.9-6.7l-3.9-0.4c0,0-9.8,7.1-11.8,7.1s-3.5,0.8-5.5,3.5c-1.4,1.8-3.1,3.2-5.1,4.2c0,0-2.5,2.3-4.7,1.5
	s-3.5,0.9-4.7-2.6l-1.2-3.5c0,0-18.9,9.8-25.2,15.3s-19.6,2.6-19.6,2.6v-2.6c0,0-7.2-9.3-12.9-10.6s-10.1,3.8-10.1,3.8l-14.2,6.8
	c0,0-3.5,8.2-11.9,3.6l-8.4-4.6L1328,81c0,0-2.7-5-11.8-5.4s-2.5-1.8-9.1-0.3s-26.4,17.3-30,17.3s-10.7,0.9-10.7,0.9l-10.5-5.4
	l-6.7-6.5c-2.1,0.3-4.3,0.1-6.3-0.6c-3.5-1.2-13.1,12.4-21.8,11.9S1202,81.5,1202,81.5l-5.2,6.6l-2.5,0.3l-8.3-4.7
	c0,0-0.8-3.5-3.7-1.1s-4.1,5.3-5.6,5.1s-12.2,0-15.7-2.2s-8.9-9.3-10.5-9.9s-2.6-6.4-7.9-5.3s-16.9,9.6-18.4,12.6s-9.5,7.2-9.5,7.2
	l-5.4,1.9c0,0-1.9,0.8-6,0.4c-3.3-0.5-6.5-1.4-9.5-2.7l-3.2-4.3c-2.4,0.7-4.9,1.2-7.4,1.4c-4.1,0.4-4.1-0.2-10.7,5.3s-2.9,6-6.6,5.5
	s-9-9-9-9c-3.5-0.1-5.3-5.1-10.4-2l-5.1,3c0,0,5.8,1-1.5,1.4c-3.7,0.1-7.5,0.5-11.2,1c0,0-3.2-3.8-3.7-7s1.4-14-3.7-9.4
	s-7.2,4.4-7.2,4.4l-4.8,1.8l-4.2,0.5l-2.2-4.3l-4.1-5.2c0,0-4.2-2-6.3,2.7s1-0.6-0.8,5.2s-0.2,5.8-6,7.9s-7.9,2.1-9.5,2.1
	s-5.3-1.6-7.4-1.6s-4.7-1.6-6.8-2.6s-2.4-4.9-6.6-6.9s-8.7-4-12.1,1.7L940,87l-5.8-1.6c-5.8-1-2.6-7-5.8-1s-1.1,2.1-6.3,4.7
	s0.4,4.3-7.6,3s-13.9-4.6-15.5-5.1s-14.3,3.6-14.3,3.6l-7.2-2.8l-4.7-5.4c0,0-1-3.3-2.6-3.8s-4.7-5.2-7.4-6.8s-8.9-2.3-11-1.1
	s11-2.6-2.1,1.1S832,76,829.5,79s-13.4,1.4-16.6,2.5s-9.1,6.4-9.1,0.5c0.1-3-0.3-6.1-1.2-9c0,0,0.7-3.2-6.9-1.1s-2.2-5.8-10,0
	s-8.9,7.4-10.4,6.8s-4.8,2.6-10.1,2.3s-14.7-2.3-14.7-2.3l-2.3-3.2c0,0,1-2.6-4.4-3.4s2-8.9-10.1-2.7s-11.6,6.6-15.2,9.3
	s-4,2.9-6.3,3.6s-5.8-3.6-5.8-3.6V75c0,0,2.6-5.4-4.7-3s-7.7-3.4-7.4,2.4l0.3,5.7c0,0,3.6-9.2,1.8-4.6s-0.4,3.8-8.4,3.9
	S674.8,79,674.8,79l0.6-8.6c0,0-7-1.7-2.6-1.9s4.5-10.3-1.4-10.3s-10.5,2.6-11.2,7s0.5,0.6-3.7,4.9s2.1,2.8-4.2,4.3s-6.8,0.7-11,1.1
	s-4.2-1.9-9.7-3.7s-5-8.4-7.1-7.9s-1.2,2.2-3.7,4.6s5.8,3.3-6.3,3.3s-6.4-2.7-14.7-2.7s-10.7-0.6-10.7-0.6l-7.7,11
	c-2.5-5-5.4-8-10.3-7.4s-6.8-1.4-9.2-0.7s1.3-8.6-6.2-2.9l-7.5,5.7c0,0,3.5,1.7-3.9,0.9s-14.8-8.1-14.8-8.1s4.8,1,0-3.2
	s-12.2-7.4-13.8-7.4h-1.6c0,0-8.4,3.2-10,3.7s2.1,0-1.6,0.5l-3.7,0.5c0,0-6.8-0.5-11.6-1s5.6-6.2-5.9-1.6l-11.5,4.6l-9.6,6.6
	c0,0-6.5,0.6-9.7,0.8s-5.2,2.8-7.9,1.1s-7.7-2.7-9.2-3.3l-1.5-0.6l-6.6,7.1c0,0,5.3-3-3.2,0.6s-2.1,2.5-8.4,3.6s-8.9,0.3-8.9,0.3
	l-4.4-2.8c0,0,0-1.1-3-1.1s-5.3-3.7-5.3-3.7s0.6-1.4-2.6,0s-2.2-1.5-3.2,1.4c-0.8,2.4-2.5,4.3-4.7,5.3c-1.6,0.6,2.1-3.1-1.6,0.6
	c-3.7,3.7-4.7,2.8-6.3,3.2s-9.5-2.9-9.5-2.9l-2.6-0.9c0,0-10.4,3.2-17.1,5.3c-3.8,1.2-6.4,2.1-5.5,1.9c2.6-0.4,9.2-1.2,7.8,1.9
	l-1.4,3.1c0,0,12.6-0.8,3,0.4s-15.2,2.2-15.2,2.2l-5.4-3.6c0,0,7.7,3.1-3.4,1.2s-12.8-12.5-12.8-12.5s-10.2,4.5-12.3,10.3
	s-4.3,4.8-2.2,5.8l2.2,1c0,0-18.6,9.4-22.2,8s-9.6-10.2-9.6-10.2s-2.4-2.8-3.6,0c-1.3,3.3-2,6.8-2.1,10.3c0,2.7,4.2-0.5-2.6,2.4
	l-6.8,2.9v-2.9l-3.5-3.3c0,0,5.1-4.8-3.8-5.8s-11-2.4-12.6-3.6s-1.4-2.3-6-2.6s-3.9-2.1-11.5,2.6c-5.1,3.1-10.5,5.7-16.1,7.8
	c0,0-5-6.5-5.2-7.8s-3.9-2.4-6.3-2.9s15.6,2.6,2.3,0.5s-17.8-5.4-18.5-2.6s7.2,1.2-4.4,2.7l-11.6,1.6l0,0c-2.9,0.7-5.8,1.7-8.4,3.1
	c0,0,0.2-3.5-4.1,1.7s-5.2,6.6,0,8.6s7.8,0,7.8,0s1.3-4-2.6,1.9c-3.9,5.9-6.1,5.4-12.6,4.2c-3.7-0.5-6.9-2.8-8.4-6.2
	c0,0,6.4,0.6,5.8-5.5s-2.3-4.3-5.9-6.9s-3.6-5.2-6.2-6.3s3.2-3.7-10-1s-4.8,1.9-16.3,3.2s-13.9,1-13.9,1s10.6-4.4,7,2.8l-3.6,7.1
	l0,0c-12.8,7.4-13.6,10.1-16.3,5.4s-7-6.6-5.3-12.5s4.3-7.7-6.5-10.2s-5.9-16-9.9-14.8s-5.6,0.5-5.6-3.3s-2.1-4.4-2.1-4.4
	c-1.6-1.5-3.4-2.9-5.3-4.2c-3.7-2.6-1.7-5.8-6.3-5.3s-7.4,2.6-14.7,5.3S-0.5,51.4,0,49.8S12.1,0,12.1,0h2091L2109.2,103.6z"></path>
</svg>